<?xml version="1.0" encoding="iso-8859-1"?>
<!-- Generator: Adobe Illustrator 19.0.0, SVG Export Plug-In . SVG Version: 6.00 Build 0)  -->
<svg version="1.1" id="Capa_1" xmlns="http://www.w3.org/2000/svg" xmlns:xlink="http://www.w3.org/1999/xlink" x="0px" y="0px"
	 viewBox="0 0 512 512" style="enable-background:new 0 0 512 512;" xml:space="preserve">
<path style="fill:#61DE56;" d="M416.667,0H95.333C42.766,0,0,42.767,0,95.334v321.332C0,469.233,42.766,512,95.333,512h321.334
	C469.234,512,512,469.233,512,416.666V95.334C512,42.767,469.234,0,416.667,0z"/>
<path style="fill:#13C37B;" d="M416.667,0H256v512h160.667C469.234,512,512,469.233,512,416.666V95.334
	C512,42.767,469.234,0,416.667,0z"/>
<g>
	<path style="fill:#F2F2F2;" d="M400.6,150.5H111.4c-8.284,0-15-6.716-15-15s6.716-15,15-15h289.2c8.284,0,15,6.716,15,15
		S408.884,150.5,400.6,150.5z"/>
	<path style="fill:#F2F2F2;" d="M400.6,271H111.4c-8.284,0-15-6.716-15-15s6.716-15,15-15h289.2c8.284,0,15,6.716,15,15
		S408.884,271,400.6,271z"/>
	<path style="fill:#F2F2F2;" d="M400.6,391.5H111.4c-8.284,0-15-6.716-15-15s6.716-15,15-15h289.2c8.284,0,15,6.716,15,15
		S408.884,391.5,400.6,391.5z"/>
</g>
<g>
	<path style="fill:#D9D9D9;" d="M415.6,135.5c0-8.284-6.716-15-15-15H256v30h144.6C408.884,150.5,415.6,143.784,415.6,135.5z"/>
	<path style="fill:#D9D9D9;" d="M415.6,256c0-8.284-6.716-15-15-15H256v30h144.6C408.884,271,415.6,264.284,415.6,256z"/>
	<path style="fill:#D9D9D9;" d="M400.6,391.5c8.284,0,15-6.716,15-15s-6.716-15-15-15H256v30H400.6z"/>
</g>
<g>
</g>
<g>
</g>
<g>
</g>
<g>
</g>
<g>
</g>
<g>
</g>
<g>
</g>
<g>
</g>
<g>
</g>
<g>
</g>
<g>
</g>
<g>
</g>
<g>
</g>
<g>
</g>
<g>
</g>
</svg>
